<svg id="Layer_1" data-name="Layer 1" xmlns="http://www.w3.org/2000/svg" viewBox="0 0 982 982"><defs><style>.cls-1{fill:#023cfb;}</style></defs><title>logoSVG</title><path class="cls-1" d="M991,502c0,271.17-219.83,491-491,491S9,773.17,9,502,228.83,11,500,11c188,0,351.31,105.66,433.81,260.84H746.93q-4-4.32-8.24-8.53a337.24,337.24,0,1,0,90.16,315.41H667.43A184.17,184.17,0,0,1,500,686.13c-101.68,0-184.12-82.45-184.12-184.13S398.32,317.88,500,317.88a184.16,184.16,0,0,1,167.43,107.4H985A493.76,493.76,0,0,1,991,502Z" transform="translate(-9 -11)"/></svg>